<mxfile host="app.diagrams.net" modified="2021-08-17T04:00:58.631Z" agent="5.0 (Windows NT 10.0; Win64; x64) AppleWebKit/537.36 (KHTML, like Gecko) Chrome/91.0.4472.77 Safari/537.36" etag="quiGaMzN51pO_X7PuSUq" version="14.9.7" type="github">
  <diagram id="pr3Yv3HZAjAhcJfGRRTj" name="Page-1">
    <mxGraphModel dx="1422" dy="762" grid="1" gridSize="10" guides="1" tooltips="1" connect="1" arrows="1" fold="1" page="1" pageScale="1" pageWidth="827" pageHeight="1169" math="0" shadow="0">
      <root>
        <mxCell id="0" />
        <mxCell id="1" parent="0" />
        <mxCell id="z8GbKeVqfSj8ncmRfNg8-6" style="edgeStyle=orthogonalEdgeStyle;rounded=0;orthogonalLoop=1;jettySize=auto;html=1;exitX=0.5;exitY=1;exitDx=0;exitDy=0;entryX=0.5;entryY=0;entryDx=0;entryDy=0;" edge="1" parent="1" source="z8GbKeVqfSj8ncmRfNg8-1" target="z8GbKeVqfSj8ncmRfNg8-3">
          <mxGeometry relative="1" as="geometry" />
        </mxCell>
        <mxCell id="z8GbKeVqfSj8ncmRfNg8-10" style="edgeStyle=orthogonalEdgeStyle;rounded=0;orthogonalLoop=1;jettySize=auto;html=1;exitX=1;exitY=0.5;exitDx=0;exitDy=0;" edge="1" parent="1" source="z8GbKeVqfSj8ncmRfNg8-1" target="z8GbKeVqfSj8ncmRfNg8-8">
          <mxGeometry relative="1" as="geometry" />
        </mxCell>
        <mxCell id="z8GbKeVqfSj8ncmRfNg8-1" value="边缘云、制作区管理" style="rounded=0;whiteSpace=wrap;html=1;fillColor=#fff2cc;strokeColor=#d6b656;" vertex="1" parent="1">
          <mxGeometry x="230" y="180" width="150" height="60" as="geometry" />
        </mxCell>
        <mxCell id="z8GbKeVqfSj8ncmRfNg8-3" value="栏目、频道管理" style="rounded=0;whiteSpace=wrap;html=1;fillColor=#fff2cc;strokeColor=#d6b656;" vertex="1" parent="1">
          <mxGeometry x="230" y="280" width="150" height="60" as="geometry" />
        </mxCell>
        <mxCell id="z8GbKeVqfSj8ncmRfNg8-7" value="需要接收PPM的通知，创建栏目、频道，同时通知非编管控" style="rounded=0;whiteSpace=wrap;html=1;fillColor=#f8cecc;strokeColor=#b85450;" vertex="1" parent="1">
          <mxGeometry x="340" y="320" width="120" height="60" as="geometry" />
        </mxCell>
        <mxCell id="z8GbKeVqfSj8ncmRfNg8-12" style="edgeStyle=orthogonalEdgeStyle;rounded=0;orthogonalLoop=1;jettySize=auto;html=1;exitX=1;exitY=0.5;exitDx=0;exitDy=0;entryX=0;entryY=0.5;entryDx=0;entryDy=0;" edge="1" parent="1" source="z8GbKeVqfSj8ncmRfNg8-8" target="z8GbKeVqfSj8ncmRfNg8-11">
          <mxGeometry relative="1" as="geometry" />
        </mxCell>
        <mxCell id="z8GbKeVqfSj8ncmRfNg8-17" value="" style="edgeStyle=orthogonalEdgeStyle;rounded=0;orthogonalLoop=1;jettySize=auto;html=1;" edge="1" parent="1" source="z8GbKeVqfSj8ncmRfNg8-8" target="z8GbKeVqfSj8ncmRfNg8-16">
          <mxGeometry relative="1" as="geometry" />
        </mxCell>
        <mxCell id="z8GbKeVqfSj8ncmRfNg8-8" value="人员管理" style="rounded=0;whiteSpace=wrap;html=1;fillColor=#fff2cc;strokeColor=#d6b656;" vertex="1" parent="1">
          <mxGeometry x="430" y="180" width="140" height="60" as="geometry" />
        </mxCell>
        <mxCell id="z8GbKeVqfSj8ncmRfNg8-9" value="LDAP同步" style="rounded=0;whiteSpace=wrap;html=1;fillColor=#f8cecc;strokeColor=#b85450;" vertex="1" parent="1">
          <mxGeometry x="490" y="230" width="110" height="40" as="geometry" />
        </mxCell>
        <mxCell id="z8GbKeVqfSj8ncmRfNg8-11" value="citrix人员同步，citrix将所有设备权限给此用户" style="rounded=0;whiteSpace=wrap;html=1;fillColor=#f8cecc;strokeColor=#b85450;" vertex="1" parent="1">
          <mxGeometry x="670" y="110" width="140" height="60" as="geometry" />
        </mxCell>
        <mxCell id="z8GbKeVqfSj8ncmRfNg8-13" value="是否要多租户化？" style="rounded=0;whiteSpace=wrap;html=1;fillColor=#f8cecc;strokeColor=#b85450;" vertex="1" parent="1">
          <mxGeometry x="150" y="320" width="120" height="60" as="geometry" />
        </mxCell>
        <mxCell id="z8GbKeVqfSj8ncmRfNg8-14" value="人员技审、编辑等角色在非编管控授权" style="rounded=0;whiteSpace=wrap;html=1;fillColor=#dae8fc;strokeColor=#6c8ebf;" vertex="1" parent="1">
          <mxGeometry x="410" y="90" width="120" height="60" as="geometry" />
        </mxCell>
        <mxCell id="z8GbKeVqfSj8ncmRfNg8-16" value="同步管控，进行权限初始化" style="rounded=0;whiteSpace=wrap;html=1;fillColor=#f8cecc;strokeColor=#b85450;" vertex="1" parent="1">
          <mxGeometry x="670" y="220" width="140" height="60" as="geometry" />
        </mxCell>
        <mxCell id="z8GbKeVqfSj8ncmRfNg8-21" style="edgeStyle=orthogonalEdgeStyle;rounded=0;orthogonalLoop=1;jettySize=auto;html=1;exitX=1;exitY=0.5;exitDx=0;exitDy=0;" edge="1" parent="1" source="z8GbKeVqfSj8ncmRfNg8-20" target="z8GbKeVqfSj8ncmRfNg8-22">
          <mxGeometry relative="1" as="geometry">
            <mxPoint x="424" y="510" as="targetPoint" />
          </mxGeometry>
        </mxCell>
        <mxCell id="z8GbKeVqfSj8ncmRfNg8-20" value="工具集管理" style="rounded=0;whiteSpace=wrap;html=1;fillColor=#fff2cc;strokeColor=#d6b656;" vertex="1" parent="1">
          <mxGeometry x="234" y="480" width="146" height="60" as="geometry" />
        </mxCell>
        <mxCell id="z8GbKeVqfSj8ncmRfNg8-24" style="edgeStyle=orthogonalEdgeStyle;rounded=0;orthogonalLoop=1;jettySize=auto;html=1;exitX=1;exitY=0.5;exitDx=0;exitDy=0;" edge="1" parent="1" source="z8GbKeVqfSj8ncmRfNg8-22" target="z8GbKeVqfSj8ncmRfNg8-25">
          <mxGeometry relative="1" as="geometry">
            <mxPoint x="654" y="450" as="targetPoint" />
          </mxGeometry>
        </mxCell>
        <mxCell id="z8GbKeVqfSj8ncmRfNg8-26" style="edgeStyle=orthogonalEdgeStyle;rounded=0;orthogonalLoop=1;jettySize=auto;html=1;exitX=1;exitY=0.5;exitDx=0;exitDy=0;" edge="1" parent="1" source="z8GbKeVqfSj8ncmRfNg8-22" target="z8GbKeVqfSj8ncmRfNg8-27">
          <mxGeometry relative="1" as="geometry">
            <mxPoint x="634" y="570" as="targetPoint" />
          </mxGeometry>
        </mxCell>
        <mxCell id="z8GbKeVqfSj8ncmRfNg8-22" value="实例虚机关系管理，不与VPC产生关系" style="rounded=0;whiteSpace=wrap;html=1;fillColor=#f8cecc;strokeColor=#b85450;" vertex="1" parent="1">
          <mxGeometry x="438" y="480" width="120" height="60" as="geometry" />
        </mxCell>
        <mxCell id="z8GbKeVqfSj8ncmRfNg8-25" value="维护实例虚机关系页面" style="rounded=0;whiteSpace=wrap;html=1;fillColor=#f8cecc;strokeColor=#b85450;" vertex="1" parent="1">
          <mxGeometry x="634" y="420" width="120" height="60" as="geometry" />
        </mxCell>
        <mxCell id="z8GbKeVqfSj8ncmRfNg8-27" value="去除实例vpc关系" style="rounded=0;whiteSpace=wrap;html=1;fillColor=#f8cecc;strokeColor=#b85450;" vertex="1" parent="1">
          <mxGeometry x="634" y="530" width="120" height="60" as="geometry" />
        </mxCell>
        <mxCell id="z8GbKeVqfSj8ncmRfNg8-30" value="Vertical Container" style="swimlane;" vertex="1" parent="1">
          <mxGeometry x="130" y="30" width="940" height="600" as="geometry" />
        </mxCell>
        <mxCell id="z8GbKeVqfSj8ncmRfNg8-23" value="网管" style="rounded=1;whiteSpace=wrap;html=1;" vertex="1" parent="z8GbKeVqfSj8ncmRfNg8-30">
          <mxGeometry x="790" y="50" width="120" height="60" as="geometry" />
        </mxCell>
        <mxCell id="z8GbKeVqfSj8ncmRfNg8-15" value="临时项目制临时工作区" style="shape=hexagon;perimeter=hexagonPerimeter2;whiteSpace=wrap;html=1;fixedSize=1;gradientColor=#97d077;fillColor=#d5e8d4;strokeColor=#82b366;" vertex="1" parent="z8GbKeVqfSj8ncmRfNg8-30">
          <mxGeometry x="767" y="430" width="120" height="80" as="geometry" />
        </mxCell>
        <mxCell id="z8GbKeVqfSj8ncmRfNg8-31" value="" style="shape=flexArrow;endArrow=classic;html=1;" edge="1" parent="z8GbKeVqfSj8ncmRfNg8-30">
          <mxGeometry width="50" height="50" relative="1" as="geometry">
            <mxPoint x="650" y="469.5" as="sourcePoint" />
            <mxPoint x="740" y="469.5" as="targetPoint" />
            <Array as="points">
              <mxPoint x="710" y="469.5" />
            </Array>
          </mxGeometry>
        </mxCell>
        <mxCell id="z8GbKeVqfSj8ncmRfNg8-32" value="Vertical Container" style="swimlane;" vertex="1" parent="1">
          <mxGeometry x="150" y="730" width="970" height="790" as="geometry" />
        </mxCell>
        <mxCell id="z8GbKeVqfSj8ncmRfNg8-33" value="领导、个人 页面" style="rounded=1;whiteSpace=wrap;html=1;" vertex="1" parent="z8GbKeVqfSj8ncmRfNg8-32">
          <mxGeometry x="790" y="50" width="120" height="60" as="geometry" />
        </mxCell>
        <mxCell id="z8GbKeVqfSj8ncmRfNg8-36" value="CET领导功能" style="rounded=0;whiteSpace=wrap;html=1;fillColor=#fff2cc;strokeColor=#d6b656;" vertex="1" parent="z8GbKeVqfSj8ncmRfNg8-32">
          <mxGeometry x="290" y="330" width="146" height="60" as="geometry" />
        </mxCell>
        <mxCell id="z8GbKeVqfSj8ncmRfNg8-38" value="设备统计" style="rounded=0;whiteSpace=wrap;html=1;fillColor=#f8cecc;strokeColor=#b85450;" vertex="1" parent="z8GbKeVqfSj8ncmRfNg8-32">
          <mxGeometry x="303" y="220" width="120" height="60" as="geometry" />
        </mxCell>
        <mxCell id="z8GbKeVqfSj8ncmRfNg8-37" style="edgeStyle=orthogonalEdgeStyle;rounded=0;orthogonalLoop=1;jettySize=auto;html=1;exitX=0.5;exitY=0;exitDx=0;exitDy=0;" edge="1" parent="z8GbKeVqfSj8ncmRfNg8-32" source="z8GbKeVqfSj8ncmRfNg8-36" target="z8GbKeVqfSj8ncmRfNg8-38">
          <mxGeometry relative="1" as="geometry">
            <mxPoint x="363" y="280" as="targetPoint" />
          </mxGeometry>
        </mxCell>
        <mxCell id="z8GbKeVqfSj8ncmRfNg8-40" value="任务统计" style="rounded=0;whiteSpace=wrap;html=1;fillColor=#f8cecc;strokeColor=#b85450;" vertex="1" parent="z8GbKeVqfSj8ncmRfNg8-32">
          <mxGeometry x="480" y="330" width="120" height="60" as="geometry" />
        </mxCell>
        <mxCell id="z8GbKeVqfSj8ncmRfNg8-39" style="edgeStyle=orthogonalEdgeStyle;rounded=0;orthogonalLoop=1;jettySize=auto;html=1;exitX=1;exitY=0.5;exitDx=0;exitDy=0;" edge="1" parent="z8GbKeVqfSj8ncmRfNg8-32" source="z8GbKeVqfSj8ncmRfNg8-36" target="z8GbKeVqfSj8ncmRfNg8-40">
          <mxGeometry relative="1" as="geometry">
            <mxPoint x="490" y="360" as="targetPoint" />
          </mxGeometry>
        </mxCell>
        <mxCell id="z8GbKeVqfSj8ncmRfNg8-42" value="流程统计" style="rounded=0;whiteSpace=wrap;html=1;fillColor=#f8cecc;strokeColor=#b85450;" vertex="1" parent="z8GbKeVqfSj8ncmRfNg8-32">
          <mxGeometry x="303" y="450" width="120" height="60" as="geometry" />
        </mxCell>
        <mxCell id="z8GbKeVqfSj8ncmRfNg8-41" style="edgeStyle=orthogonalEdgeStyle;rounded=0;orthogonalLoop=1;jettySize=auto;html=1;exitX=0.5;exitY=1;exitDx=0;exitDy=0;" edge="1" parent="z8GbKeVqfSj8ncmRfNg8-32" source="z8GbKeVqfSj8ncmRfNg8-36" target="z8GbKeVqfSj8ncmRfNg8-42">
          <mxGeometry relative="1" as="geometry">
            <mxPoint x="363" y="440" as="targetPoint" />
          </mxGeometry>
        </mxCell>
        <mxCell id="z8GbKeVqfSj8ncmRfNg8-50" style="edgeStyle=orthogonalEdgeStyle;rounded=0;orthogonalLoop=1;jettySize=auto;html=1;exitX=0;exitY=0.5;exitDx=0;exitDy=0;entryX=1;entryY=0.5;entryDx=0;entryDy=0;" edge="1" parent="z8GbKeVqfSj8ncmRfNg8-32" source="z8GbKeVqfSj8ncmRfNg8-43" target="z8GbKeVqfSj8ncmRfNg8-154">
          <mxGeometry relative="1" as="geometry">
            <mxPoint x="783.96" y="382.02" as="targetPoint" />
          </mxGeometry>
        </mxCell>
        <mxCell id="z8GbKeVqfSj8ncmRfNg8-43" value="边缘云管控" style="ellipse;whiteSpace=wrap;html=1;aspect=fixed;fillColor=#f8cecc;strokeColor=#b85450;" vertex="1" parent="z8GbKeVqfSj8ncmRfNg8-32">
          <mxGeometry x="860" y="380" width="80" height="80" as="geometry" />
        </mxCell>
        <mxCell id="z8GbKeVqfSj8ncmRfNg8-49" style="edgeStyle=orthogonalEdgeStyle;rounded=0;orthogonalLoop=1;jettySize=auto;html=1;exitX=0;exitY=0.5;exitDx=0;exitDy=0;entryX=1;entryY=0.5;entryDx=0;entryDy=0;" edge="1" parent="z8GbKeVqfSj8ncmRfNg8-32" source="z8GbKeVqfSj8ncmRfNg8-44" target="z8GbKeVqfSj8ncmRfNg8-83">
          <mxGeometry relative="1" as="geometry">
            <mxPoint x="780" y="345" as="targetPoint" />
          </mxGeometry>
        </mxCell>
        <mxCell id="z8GbKeVqfSj8ncmRfNg8-44" value="边缘云管控" style="ellipse;whiteSpace=wrap;html=1;aspect=fixed;fillColor=#f8cecc;strokeColor=#b85450;" vertex="1" parent="z8GbKeVqfSj8ncmRfNg8-32">
          <mxGeometry x="860" y="280" width="80" height="80" as="geometry" />
        </mxCell>
        <mxCell id="z8GbKeVqfSj8ncmRfNg8-47" style="edgeStyle=orthogonalEdgeStyle;rounded=0;orthogonalLoop=1;jettySize=auto;html=1;exitX=0.5;exitY=0;exitDx=0;exitDy=0;" edge="1" parent="z8GbKeVqfSj8ncmRfNg8-32" source="z8GbKeVqfSj8ncmRfNg8-45" target="z8GbKeVqfSj8ncmRfNg8-157">
          <mxGeometry relative="1" as="geometry">
            <mxPoint x="331" y="630" as="targetPoint" />
          </mxGeometry>
        </mxCell>
        <mxCell id="z8GbKeVqfSj8ncmRfNg8-45" value="边缘云管控" style="ellipse;whiteSpace=wrap;html=1;aspect=fixed;fillColor=#f8cecc;strokeColor=#b85450;" vertex="1" parent="z8GbKeVqfSj8ncmRfNg8-32">
          <mxGeometry x="248" y="690" width="80" height="80" as="geometry" />
        </mxCell>
        <mxCell id="z8GbKeVqfSj8ncmRfNg8-158" style="edgeStyle=orthogonalEdgeStyle;rounded=0;orthogonalLoop=1;jettySize=auto;html=1;exitX=0.5;exitY=0;exitDx=0;exitDy=0;entryX=0.567;entryY=0.983;entryDx=0;entryDy=0;entryPerimeter=0;" edge="1" parent="z8GbKeVqfSj8ncmRfNg8-32" source="z8GbKeVqfSj8ncmRfNg8-46" target="z8GbKeVqfSj8ncmRfNg8-85">
          <mxGeometry relative="1" as="geometry" />
        </mxCell>
        <mxCell id="z8GbKeVqfSj8ncmRfNg8-46" value="边缘云管控" style="ellipse;whiteSpace=wrap;html=1;aspect=fixed;fillColor=#f8cecc;strokeColor=#b85450;" vertex="1" parent="z8GbKeVqfSj8ncmRfNg8-32">
          <mxGeometry x="398" y="690" width="80" height="80" as="geometry" />
        </mxCell>
        <mxCell id="z8GbKeVqfSj8ncmRfNg8-53" style="edgeStyle=orthogonalEdgeStyle;rounded=0;orthogonalLoop=1;jettySize=auto;html=1;exitX=0.5;exitY=1;exitDx=0;exitDy=0;entryX=0.25;entryY=0;entryDx=0;entryDy=0;" edge="1" parent="z8GbKeVqfSj8ncmRfNg8-32" source="z8GbKeVqfSj8ncmRfNg8-51" target="z8GbKeVqfSj8ncmRfNg8-38">
          <mxGeometry relative="1" as="geometry" />
        </mxCell>
        <mxCell id="z8GbKeVqfSj8ncmRfNg8-51" value="边缘云CET" style="ellipse;whiteSpace=wrap;html=1;aspect=fixed;fillColor=#f8cecc;strokeColor=#b85450;" vertex="1" parent="z8GbKeVqfSj8ncmRfNg8-32">
          <mxGeometry x="244" y="80" width="80" height="80" as="geometry" />
        </mxCell>
        <mxCell id="z8GbKeVqfSj8ncmRfNg8-54" style="edgeStyle=orthogonalEdgeStyle;rounded=0;orthogonalLoop=1;jettySize=auto;html=1;exitX=0.5;exitY=1;exitDx=0;exitDy=0;entryX=0.75;entryY=0;entryDx=0;entryDy=0;" edge="1" parent="z8GbKeVqfSj8ncmRfNg8-32" source="z8GbKeVqfSj8ncmRfNg8-52" target="z8GbKeVqfSj8ncmRfNg8-38">
          <mxGeometry relative="1" as="geometry" />
        </mxCell>
        <mxCell id="z8GbKeVqfSj8ncmRfNg8-52" value="边缘云CET" style="ellipse;whiteSpace=wrap;html=1;aspect=fixed;fillColor=#f8cecc;strokeColor=#b85450;" vertex="1" parent="z8GbKeVqfSj8ncmRfNg8-32">
          <mxGeometry x="390" y="80" width="80" height="80" as="geometry" />
        </mxCell>
        <mxCell id="z8GbKeVqfSj8ncmRfNg8-81" value="Actor" style="shape=umlActor;verticalLabelPosition=bottom;verticalAlign=top;html=1;outlineConnect=0;" vertex="1" parent="z8GbKeVqfSj8ncmRfNg8-32">
          <mxGeometry x="110" y="280" width="30" height="60" as="geometry" />
        </mxCell>
        <mxCell id="z8GbKeVqfSj8ncmRfNg8-82" value="Actor" style="shape=umlActor;verticalLabelPosition=bottom;verticalAlign=top;html=1;outlineConnect=0;" vertex="1" parent="z8GbKeVqfSj8ncmRfNg8-32">
          <mxGeometry x="110" y="380" width="30" height="60" as="geometry" />
        </mxCell>
        <mxCell id="z8GbKeVqfSj8ncmRfNg8-84" style="edgeStyle=orthogonalEdgeStyle;rounded=0;orthogonalLoop=1;jettySize=auto;html=1;exitX=0;exitY=0.5;exitDx=0;exitDy=0;entryX=1;entryY=0.5;entryDx=0;entryDy=0;" edge="1" parent="z8GbKeVqfSj8ncmRfNg8-32" source="z8GbKeVqfSj8ncmRfNg8-83" target="z8GbKeVqfSj8ncmRfNg8-40">
          <mxGeometry relative="1" as="geometry" />
        </mxCell>
        <mxCell id="z8GbKeVqfSj8ncmRfNg8-83" value="边缘云CET" style="rounded=0;whiteSpace=wrap;html=1;fillColor=#f8cecc;strokeColor=#b85450;" vertex="1" parent="z8GbKeVqfSj8ncmRfNg8-32">
          <mxGeometry x="650" y="290" width="120" height="60" as="geometry" />
        </mxCell>
        <mxCell id="z8GbKeVqfSj8ncmRfNg8-86" style="edgeStyle=orthogonalEdgeStyle;rounded=0;orthogonalLoop=1;jettySize=auto;html=1;exitX=0.5;exitY=0;exitDx=0;exitDy=0;entryX=0.5;entryY=1;entryDx=0;entryDy=0;" edge="1" parent="z8GbKeVqfSj8ncmRfNg8-32" source="z8GbKeVqfSj8ncmRfNg8-85" target="z8GbKeVqfSj8ncmRfNg8-42">
          <mxGeometry relative="1" as="geometry" />
        </mxCell>
        <mxCell id="z8GbKeVqfSj8ncmRfNg8-85" value="边缘云CET" style="rounded=0;whiteSpace=wrap;html=1;fillColor=#f8cecc;strokeColor=#b85450;" vertex="1" parent="z8GbKeVqfSj8ncmRfNg8-32">
          <mxGeometry x="378" y="570" width="120" height="60" as="geometry" />
        </mxCell>
        <mxCell id="z8GbKeVqfSj8ncmRfNg8-156" style="edgeStyle=orthogonalEdgeStyle;rounded=0;orthogonalLoop=1;jettySize=auto;html=1;exitX=0.5;exitY=0;exitDx=0;exitDy=0;entryX=0.5;entryY=1;entryDx=0;entryDy=0;" edge="1" parent="z8GbKeVqfSj8ncmRfNg8-32" source="z8GbKeVqfSj8ncmRfNg8-87" target="z8GbKeVqfSj8ncmRfNg8-43">
          <mxGeometry relative="1" as="geometry" />
        </mxCell>
        <mxCell id="z8GbKeVqfSj8ncmRfNg8-87" value="个人门户" style="rounded=0;whiteSpace=wrap;html=1;fillColor=#fff2cc;strokeColor=#d6b656;" vertex="1" parent="z8GbKeVqfSj8ncmRfNg8-32">
          <mxGeometry x="835" y="520" width="130" height="60" as="geometry" />
        </mxCell>
        <mxCell id="z8GbKeVqfSj8ncmRfNg8-119" style="edgeStyle=orthogonalEdgeStyle;rounded=0;orthogonalLoop=1;jettySize=auto;html=1;exitX=0;exitY=0.5;exitDx=0;exitDy=0;entryX=1;entryY=0.5;entryDx=0;entryDy=0;" edge="1" parent="z8GbKeVqfSj8ncmRfNg8-32" source="z8GbKeVqfSj8ncmRfNg8-118" target="z8GbKeVqfSj8ncmRfNg8-85">
          <mxGeometry relative="1" as="geometry" />
        </mxCell>
        <mxCell id="z8GbKeVqfSj8ncmRfNg8-118" value="个人门户" style="rounded=0;whiteSpace=wrap;html=1;fillColor=#fff2cc;strokeColor=#d6b656;" vertex="1" parent="z8GbKeVqfSj8ncmRfNg8-32">
          <mxGeometry x="550" y="570" width="120" height="60" as="geometry" />
        </mxCell>
        <mxCell id="z8GbKeVqfSj8ncmRfNg8-121" style="edgeStyle=orthogonalEdgeStyle;rounded=0;orthogonalLoop=1;jettySize=auto;html=1;exitX=0;exitY=0.5;exitDx=0;exitDy=0;entryX=1;entryY=0.5;entryDx=0;entryDy=0;" edge="1" parent="z8GbKeVqfSj8ncmRfNg8-32" source="z8GbKeVqfSj8ncmRfNg8-120" target="z8GbKeVqfSj8ncmRfNg8-52">
          <mxGeometry relative="1" as="geometry" />
        </mxCell>
        <mxCell id="z8GbKeVqfSj8ncmRfNg8-120" value="个人门户" style="rounded=0;whiteSpace=wrap;html=1;fillColor=#fff2cc;strokeColor=#d6b656;" vertex="1" parent="z8GbKeVqfSj8ncmRfNg8-32">
          <mxGeometry x="550" y="90" width="120" height="60" as="geometry" />
        </mxCell>
        <mxCell id="z8GbKeVqfSj8ncmRfNg8-155" style="edgeStyle=orthogonalEdgeStyle;rounded=0;orthogonalLoop=1;jettySize=auto;html=1;exitX=0;exitY=0.5;exitDx=0;exitDy=0;entryX=1;entryY=0.75;entryDx=0;entryDy=0;" edge="1" parent="z8GbKeVqfSj8ncmRfNg8-32" source="z8GbKeVqfSj8ncmRfNg8-154" target="z8GbKeVqfSj8ncmRfNg8-40">
          <mxGeometry relative="1" as="geometry" />
        </mxCell>
        <mxCell id="z8GbKeVqfSj8ncmRfNg8-154" value="边缘云CET" style="rounded=0;whiteSpace=wrap;html=1;fillColor=#f8cecc;strokeColor=#b85450;" vertex="1" parent="z8GbKeVqfSj8ncmRfNg8-32">
          <mxGeometry x="650" y="390" width="120" height="60" as="geometry" />
        </mxCell>
        <mxCell id="z8GbKeVqfSj8ncmRfNg8-159" style="edgeStyle=orthogonalEdgeStyle;rounded=0;orthogonalLoop=1;jettySize=auto;html=1;exitX=0.5;exitY=0;exitDx=0;exitDy=0;entryX=0.333;entryY=1.033;entryDx=0;entryDy=0;entryPerimeter=0;" edge="1" parent="z8GbKeVqfSj8ncmRfNg8-32" source="z8GbKeVqfSj8ncmRfNg8-157" target="z8GbKeVqfSj8ncmRfNg8-42">
          <mxGeometry relative="1" as="geometry" />
        </mxCell>
        <mxCell id="z8GbKeVqfSj8ncmRfNg8-157" value="边缘云CET" style="rounded=0;whiteSpace=wrap;html=1;fillColor=#f8cecc;strokeColor=#b85450;" vertex="1" parent="z8GbKeVqfSj8ncmRfNg8-32">
          <mxGeometry x="224" y="570" width="120" height="60" as="geometry" />
        </mxCell>
        <mxCell id="z8GbKeVqfSj8ncmRfNg8-55" style="edgeStyle=orthogonalEdgeStyle;rounded=0;orthogonalLoop=1;jettySize=auto;html=1;exitX=0;exitY=0.5;exitDx=0;exitDy=0;" edge="1" parent="1" source="z8GbKeVqfSj8ncmRfNg8-36">
          <mxGeometry relative="1" as="geometry">
            <mxPoint x="310" y="1090" as="targetPoint" />
          </mxGeometry>
        </mxCell>
        <mxCell id="z8GbKeVqfSj8ncmRfNg8-160" value="Vertical Container" style="swimlane;" vertex="1" parent="1">
          <mxGeometry x="140" y="1600" width="950" height="470" as="geometry" />
        </mxCell>
        <mxCell id="z8GbKeVqfSj8ncmRfNg8-161" value="RE2支持mysql" style="rounded=1;whiteSpace=wrap;html=1;fillColor=#f8cecc;strokeColor=#b85450;" vertex="1" parent="z8GbKeVqfSj8ncmRfNg8-160">
          <mxGeometry x="60" y="60" width="120" height="60" as="geometry" />
        </mxCell>
      </root>
    </mxGraphModel>
  </diagram>
</mxfile>
